<?xml version="1.0" encoding="UTF-8"?>
<svg version="1.2" xmlns="http://www.w3.org/2000/svg" width="92" height="92">
<path d="M0 0 C30.36 0 60.72 0 92 0 C92 30.36 92 60.72 92 92 C61.64 92 31.28 92 0 92 C0 61.64 0 31.28 0 0 Z " fill="#0A0F18" transform="translate(0,0)"/>
<path d="M0 0 C1.65 0 3.3 0 5 0 C6.32421964 2.20200532 7.63426729 4.41061826 8.9375 6.625 C9.49727539 7.55119141 9.49727539 7.55119141 10.06835938 8.49609375 C12.31049171 12.33397792 13.56308177 15.49211351 14 20 C14.66 20 15.32 20 16 20 C16.38671875 20.78503906 16.7734375 21.57007812 17.171875 22.37890625 C20.51807689 29.18192046 20.51807689 29.18192046 24.1875 35.8125 C25.50636214 38.13187824 26.5620959 40.24321368 27.5625 42.6875 C28.81570736 45.94588361 28.81570736 45.94588361 30.6875 48.1875 C32 50 32 50 32 54 C32.66 54 33.32 54 34 54 C35.00732399 55.93370231 36.00563288 57.87210306 37 59.8125 C37.556875 60.89144531 38.11375 61.97039062 38.6875 63.08203125 C40 66 40 66 40 69 C36.04 69 32.08 69 28 69 C24 62.25 24 62.25 24 60 C23.34 60 22.68 60 22 60 C21.35089846 58.41800369 20.70585306 56.83434276 20.0625 55.25 C19.70285156 54.36828125 19.34320313 53.4865625 18.97265625 52.578125 C18.14643424 50.38813896 17.50630057 48.28101729 17 46 C16.34 46 15.68 46 15 46 C13.72660518 43.48043257 12.45623358 40.95941351 11.1875 38.4375 C10.83107422 37.73302734 10.47464844 37.02855469 10.10742188 36.30273438 C8.40713728 32.91776413 6.80794883 29.56315478 5.42578125 26.03515625 C4.95527344 25.03355469 4.48476563 24.03195313 4 23 C3.01 22.67 2.02 22.34 1 22 C0.60167969 23.02480469 0.60167969 23.02480469 0.1953125 24.0703125 C-4.18295642 34.80136376 -9.50274106 45.08781702 -15.04785156 55.25292969 C-15.97243145 56.94941525 -16.8886914 58.65042689 -17.8046875 60.3515625 C-21.85919944 67.85919944 -21.85919944 67.85919944 -23 69 C-25.01964199 69.07244053 -27.04167124 69.08377188 -29.0625 69.0625 C-30.16722656 69.05347656 -31.27195312 69.04445313 -32.41015625 69.03515625 C-33.26480469 69.02355469 -34.11945312 69.01195313 -35 69 C-31.65865638 61.20353156 -27.87148625 53.65780481 -24.05224609 46.08837891 C-22.35994597 42.72969324 -20.68037342 39.36466379 -19 36 C-18 34 -17 32 -16 30 C-15.34 30 -14.68 30 -14 30 C-13.92394531 29.34644531 -13.84789063 28.69289063 -13.76953125 28.01953125 C-12.71211279 23.87037151 -10.74170972 20.42451831 -8.6875 16.6875 C-7.89881878 15.23357203 -7.11105411 13.77914649 -6.32421875 12.32421875 C-5.93927246 11.61442871 -5.55432617 10.90463867 -5.15771484 10.17333984 C-3.36919419 6.81580908 -1.6842445 3.41088416 0 0 Z " fill="#BA803A" transform="translate(43,12)"/>
<path d="M0 0 C2.5794551 1.28972755 2.7247386 2.30372878 3.8125 4.9375 C5.33057198 8.48535361 6.91915817 11.97549652 8.625 15.4375 C9.02976562 16.26121094 9.43453125 17.08492187 9.8515625 17.93359375 C10.95038918 20.13343372 10.95038918 20.13343372 13 22 C13 23.32 13 24.64 13 26 C13.66 26 14.32 26 15 26 C16.00732399 27.93370231 17.00563288 29.87210306 18 31.8125 C18.556875 32.89144531 19.11375 33.97039062 19.6875 35.08203125 C21 38 21 38 21 41 C17.04 41 13.08 41 9 41 C5 34.25 5 34.25 5 32 C4.34 32 3.68 32 3 32 C2.35089846 30.41800369 1.70585306 28.83434276 1.0625 27.25 C0.70285156 26.36828125 0.34320313 25.4865625 -0.02734375 24.578125 C-0.85356576 22.38813896 -1.49369943 20.28101729 -2 18 C-2.66 18 -3.32 18 -4 18 C-4.99 15.36 -5.98 12.72 -7 10 C-5.68 10 -4.36 10 -3 10 C-0.96564469 6.27034861 0 4.33094958 0 0 Z " fill="#5F6466" transform="translate(62,40)"/>
<path d="M0 0 C1.6875 1.25 1.6875 1.25 2.6875 2.25 C2.92478814 8.77542373 2.92478814 8.77542373 1.6875 11.25 C3.85624252 10.74396008 5.68717627 10.25016187 7.6875 9.25 C8.80661726 12.60735177 8.67474022 14.85859964 7.6875 18.25 C4.52584835 22.16736351 0.78187305 25.4701291 -4.3125 26.1875 C-5.7975 26.2184375 -5.7975 26.2184375 -7.3125 26.25 C-7.40402344 25.64671875 -7.49554688 25.0434375 -7.58984375 24.421875 C-8.48970492 21.71742737 -9.51952019 21.0417686 -11.875 19.5 C-12.51566406 19.07203125 -13.15632813 18.6440625 -13.81640625 18.203125 C-14.31011719 17.88859375 -14.80382813 17.5740625 -15.3125 17.25 C-14.625 14.8125 -14.625 14.8125 -13.3125 12.25 C-10.8125 11.375 -10.8125 11.375 -8.3125 11.25 C-7.6525 11.58 -6.9925 11.91 -6.3125 12.25 C-6.3125 11.59 -6.3125 10.93 -6.3125 10.25 C-7.6325 9.59 -8.9525 8.93 -10.3125 8.25 C-9.01440641 2.68674177 -9.01440641 2.68674177 -5.5 0.5 C-2.3125 -0.75 -2.3125 -0.75 0 0 Z " fill="#291210" transform="translate(50.3125,50.75)"/>
<path d="M0 0 C0.33 1.32 0.66 2.64 1 4 C1.99 4 2.98 4 4 4 C4 4.66 4 5.32 4 6 C4.66 6 5.32 6 6 6 C6 5.34 6 4.68 6 4 C8.475 4.495 8.475 4.495 11 5 C1.38297872 24.61702128 1.38297872 24.61702128 -1 27 C-3.01964199 27.07244053 -5.04167124 27.08377188 -7.0625 27.0625 C-8.16722656 27.05347656 -9.27195312 27.04445313 -10.41015625 27.03515625 C-11.69212891 27.01775391 -11.69212891 27.01775391 -13 27 C-9.35240729 18.48895034 -5.17363897 10.26132199 -1 2 C-0.67 1.34 -0.34 0.68 0 0 Z " fill="#4C6069" transform="translate(21,54)"/>
<path d="M0 0 C1.65 0 3.3 0 5 0 C5.33773437 0.89203125 5.67546875 1.7840625 6.0234375 2.703125 C6.46945313 3.87359375 6.91546875 5.0440625 7.375 6.25 C7.81585938 7.41015625 8.25671875 8.5703125 8.7109375 9.765625 C9.8873419 12.87542088 9.8873419 12.87542088 11.1640625 15.234375 C12 17 12 17 12 20 C10.68 20 9.36 20 8 20 C7.67 18.68 7.34 17.36 7 16 C6.34 16 5.68 16 5 16 C5 17.32 5 18.64 5 20 C3.68 20 2.36 20 1 20 C1 19.01 1 18.02 1 17 C0.01 17 -0.98 17 -2 17 C-2.33 19.31 -2.66 21.62 -3 24 C-3.99 24 -4.98 24 -6 24 C-6 24.66 -6 25.32 -6 26 C-6.66 26 -7.32 26 -8 26 C-10.81329975 17.09121747 -4.00505814 7.71466118 0 0 Z " fill="#CF822F" transform="translate(43,12)"/>
<path d="M0 0 C1.32 0.33 2.64 0.66 4 1 C4 1.66 4 2.32 4 3 C3.01 3 2.02 3 1 3 C0.8453125 4.299375 0.8453125 4.299375 0.6875 5.625 C-0.03398414 9.16683123 -1.27123261 11.84312042 -3 15 C-2.34 15 -1.68 15 -1 15 C-0.67 16.32 -0.34 17.64 0 19 C-0.66 19 -1.32 19 -2 19 C-2.33 20.98 -2.66 22.96 -3 25 C-2.01 25.66 -1.02 26.32 0 27 C0 27.66 0 28.32 0 29 C-2.31 29.33 -4.62 29.66 -7 30 C-7.33 31.32 -7.66 32.64 -8 34 C-7.24203125 34.52400391 -7.24203125 34.52400391 -6.46875 35.05859375 C-5.8190625 35.51363281 -5.169375 35.96867187 -4.5 36.4375 C-3.8503125 36.88996094 -3.200625 37.34242187 -2.53125 37.80859375 C-2.0259375 38.20175781 -1.520625 38.59492187 -1 39 C-1 39.33 -1 39.66 -1 40 C-3.78208376 40.23184031 -5.55598856 40.22873317 -8.0625 38.9375 C-10.83190093 36.16809907 -12.31413285 33.55905287 -14 30 C-13.57941487 26.55690478 -11.94282333 23.68518992 -10.375 20.625 C-9.84390625 19.58085938 -9.3128125 18.53671875 -8.765625 17.4609375 C-7.89164063 15.74777344 -7.89164063 15.74777344 -7 14 C-5.70361613 11.41901757 -4.41428925 8.83453212 -3.125 6.25 C-2.52356248 5.04681252 -1.9220109 3.84368204 -1.3203125 2.640625 C-0.88460937 1.76921875 -0.44890625 0.8978125 0 0 Z " fill="#140C0E" transform="translate(44,34)"/>
<path d="M0 0 C0.66 0.33 1.32 0.66 2 1 C2 2.32 2 3.64 2 5 C2.66 5 3.32 5 4 5 C5.00732399 6.93370231 6.00563288 8.87210306 7 10.8125 C7.556875 11.89144531 8.11375 12.97039062 8.6875 14.08203125 C10 17 10 17 10 20 C6.04 20 2.08 20 -2 20 C-6 13.25 -6 13.25 -6 11 C-6.66 11 -7.32 11 -8 11 C-8.33 9.35 -8.66 7.7 -9 6 C-8.34 6 -7.68 6 -7 6 C-7.33 4.68 -7.66 3.36 -8 2 C-5.36 2.33 -2.72 2.66 0 3 C0 2.01 0 1.02 0 0 Z " fill="#125573" transform="translate(73,61)"/>
<path d="M0 0 C1.32 0.66 2.64 1.32 4 2 C4 2.66 4 3.32 4 4 C4.99 4 5.98 4 7 4 C7 3.34 7 2.68 7 2 C7.66 2 8.32 2 9 2 C9 2.66 9 3.32 9 4 C9.66 4 10.32 4 11 4 C9.75696561 9.17930997 8.14512215 12.70166639 5 17 C3.35 16.67 1.7 16.34 0 16 C0 16.66 0 17.32 0 18 C-0.66 18 -1.32 18 -2 18 C-2 17.34 -2 16.68 -2 16 C-2.66 16 -3.32 16 -4 16 C-4.33 16.99 -4.66 17.98 -5 19 C-7.10615336 12.68153992 -2.67718019 5.73124497 0 0 Z " fill="#6E6C62" transform="translate(27,42)"/>
<path d="M0 0 C3.33333333 1.66666667 6.66666667 3.33333333 10 5 C10 4.34 10 3.68 10 3 C12.35438733 1.57055055 13.48032433 0.91338739 16.25 1.375 C16.8275 1.58125 17.405 1.7875 18 2 C18 6 18 6 16.390625 7.73828125 C15.68421875 8.25777344 14.9778125 8.77726562 14.25 9.3125 C13.55390625 9.84488281 12.8578125 10.37726563 12.140625 10.92578125 C10 12 10 12 8 11.859375 C5.61702685 10.83544123 3.79089979 9.53620484 1.75 7.9375 C1.04359375 7.38964844 0.3371875 6.84179688 -0.390625 6.27734375 C-0.92171875 5.85582031 -1.4528125 5.43429688 -2 5 C-1.34 3.35 -0.68 1.7 0 0 Z " fill="#D85A3D" transform="translate(37,63)"/>
<path d="M0 0 C0.37125 0.495 0.7425 0.99 1.125 1.5 C3.74694393 3.59755514 5.73842472 3.21743835 9 3 C10 6 10 6 8.8125 9.1875 C6 12 6 12 3.05859375 12.38671875 C0.01858811 12.37595132 -2.97142388 12.25714326 -6 12 C-5.37853192 10.56096954 -4.75267941 9.12383207 -4.125 7.6875 C-3.77695313 6.88699219 -3.42890625 6.08648437 -3.0703125 5.26171875 C-2 3 -2 3 0 0 Z " fill="#376075" transform="translate(14,69)"/>
<path d="M0 0 C2.69173926 2.69173926 2.85698792 4.21017994 3 8 C1.90331933 10.56921903 0.55038088 12.65093806 -1 15 C-3.25 15 -3.25 15 -6 14 C-8.80979411 10.07706062 -10 6.83245843 -10 2 C-6 3 -6 3 -2 4 C-2 3.34 -2 2.68 -2 2 C-1.34 2 -0.68 2 0 2 C0 1.34 0 0.68 0 0 Z " fill="#7B6F59" transform="translate(60,36)"/>
<path d="M0 0 C0.66 0.33 1.32 0.66 2 1 C2 2.32 2 3.64 2 5 C2.66 5 3.32 5 4 5 C7 10.75 7 10.75 7 13 C6.01 13 5.02 13 4 13 C4 12.34 4 11.68 4 11 C3.01 11 2.02 11 1 11 C1 10.34 1 9.68 1 9 C0.01 9 -0.98 9 -2 9 C-2.33 10.32 -2.66 11.64 -3 13 C-3.99 13 -4.98 13 -6 13 C-6 12.34 -6 11.68 -6 11 C-6.66 11 -7.32 11 -8 11 C-8.33 9.35 -8.66 7.7 -9 6 C-8.34 6 -7.68 6 -7 6 C-7.33 4.68 -7.66 3.36 -8 2 C-5.36 2.33 -2.72 2.66 0 3 C0 2.01 0 1.02 0 0 Z " fill="#2E5D79" transform="translate(73,61)"/>
<path d="M0 0 C1.32 0.33 2.64 0.66 4 1 C4.66 3.31 5.32 5.62 6 8 C4.625 9.5 4.625 9.5 3 11 C2.34 11 1.68 11 1 11 C-1.33932406 11.64533078 -3.67328146 12.31060191 -6 13 C-5.63118644 6.85310727 -4.09949571 4.30972626 0 0 Z " fill="#E7861A" transform="translate(45,15)"/>
<path d="M0 0 C0.66 0 1.32 0 2 0 C2 1.65 2 3.3 2 5 C2.54269531 4.71125 3.08539063 4.4225 3.64453125 4.125 C4.35996094 3.75375 5.07539062 3.3825 5.8125 3 C6.52019531 2.62875 7.22789063 2.2575 7.95703125 1.875 C10 1 10 1 13 1 C12.24088921 2.48521677 11.46728766 3.96303425 10.6875 5.4375 C10.25824219 6.26121094 9.82898437 7.08492187 9.38671875 7.93359375 C8 10 8 10 5 11 C5 10.34 5 9.68 5 9 C4.34 9 3.68 9 3 9 C3 9.66 3 10.32 3 11 C2.01 11 1.02 11 0 11 C0 10.34 0 9.68 0 9 C-0.99 9.33 -1.98 9.66 -3 10 C-2.25 3.375 -2.25 3.375 0 0 Z " fill="#A07B50" transform="translate(31,35)"/>
<path d="M0 0 C0.66 2.31 1.32 4.62 2 7 C1.21753906 7.06058594 0.43507813 7.12117188 -0.37109375 7.18359375 C-1.88896484 7.30927734 -1.88896484 7.30927734 -3.4375 7.4375 C-4.44683594 7.51871094 -5.45617187 7.59992188 -6.49609375 7.68359375 C-8.93640779 7.73211468 -8.93640779 7.73211468 -10 9 C-11.66617115 9.04063832 -13.33388095 9.042721 -15 9 C-15.33 8.01 -15.66 7.02 -16 6 C-14.948125 5.566875 -13.89625 5.13375 -12.8125 4.6875 C-10.46371887 3.69305638 -8.48937459 2.67937475 -6.3125 1.3125 C-4 0 -4 0 0 0 Z " fill="#071D30" transform="translate(60,71)"/>
<path d="M0 0 C1.98 0 3.96 0 6 0 C9.125 6.625 9.125 6.625 8 10 C8 9.34 8 8.68 8 8 C5.69 8 3.38 8 1 8 C1 8.99 1 9.98 1 11 C-2 10 -2 10 -2.875 8.3125 C-3.05576685 4.96831319 -1.62387111 2.85801315 0 0 Z " fill="#43627B" transform="translate(65,56)"/>
<path d="M0 0 C2.64 0 5.28 0 8 0 C8.33 1.98 8.66 3.96 9 6 C8.01 6.33 7.02 6.66 6 7 C6 7.66 6 8.32 6 9 C0.25 8.25 0.25 8.25 -2 6 C-1.64644564 3.73725212 -1.02455574 2.04911148 0 0 Z " fill="#C7782C" transform="translate(42,53)"/>
<path d="M0 0 C1.32 0.66 2.64 1.32 4 2 C4 2.66 4 3.32 4 4 C4.99 4 5.98 4 7 4 C7 3.34 7 2.68 7 2 C7.66 2 8.32 2 9 2 C9 2.66 9 3.32 9 4 C9.66 4 10.32 4 11 4 C11 4.66 11 5.32 11 6 C9.9275 6.28875 8.855 6.5775 7.75 6.875 C4.88202221 7.73539334 2.6027252 8.60568293 0 10 C-0.99 10.33 -1.98 10.66 -3 11 C-2.53199289 6.94393835 -2.12046792 3.53411321 0 0 Z " fill="#7E6C57" transform="translate(27,42)"/>
<path d="M0 0 C5.625 -0.25 5.625 -0.25 9 2 C9.8125 4.5 9.8125 4.5 10 7 C9.34 7.66 8.68 8.32 8 9 C5 4.25 5 4.25 5 2 C3.35 2 1.7 2 0 2 C-0.27585937 2.70511719 -0.55171875 3.41023437 -0.8359375 4.13671875 C-2.02683155 7.0659984 -3.30875136 9.93753586 -4.625 12.8125 C-5.29402344 14.27623047 -5.29402344 14.27623047 -5.9765625 15.76953125 C-6.31429687 16.50558594 -6.65203125 17.24164062 -7 18 C-7.33 18 -7.66 18 -8 18 C-7.25 11.375 -7.25 11.375 -5 8 C-4.61500109 6.34450469 -4.27206865 4.6777567 -4 3 C-3.01 3 -2.02 3 -1 3 C-0.67 2.01 -0.34 1.02 0 0 Z " fill="#260D01" transform="translate(43,10)"/>
<path d="M0 0 C0.97509909 2.58460001 1.15692639 3.63766589 0.0390625 6.21875 C-0.42757812 6.9715625 -0.89421875 7.724375 -1.375 8.5 C-3.11754285 11.34258386 -4.35795393 13.71511315 -5 17 C-5.66 17 -6.32 17 -7 17 C-7.19335938 17.63808594 -7.38671875 18.27617188 -7.5859375 18.93359375 C-7.84632812 19.75988281 -8.10671875 20.58617188 -8.375 21.4375 C-8.63023438 22.26121094 -8.88546875 23.08492187 -9.1484375 23.93359375 C-10 26 -10 26 -12 27 C-12.33 26.01 -12.66 25.02 -13 24 C-12.67 23.34 -12.34 22.68 -12 22 C-11.34 22 -10.68 22 -10 22 C-9.40267181 19.23735711 -9 16.83967231 -9 14 C-8.34 14 -7.68 14 -7 14 C-7 13.34 -7 12.68 -7 12 C-6.34 12 -5.68 12 -5 12 C-5.33 10.35 -5.66 8.7 -6 7 C-5.34 7 -4.68 7 -4 7 C-3.896875 6.401875 -3.79375 5.80375 -3.6875 5.1875 C-2.91123545 2.71756736 -1.92911079 1.67748765 0 0 Z " fill="#120B06" transform="translate(34,25)"/>
<path d="M0 0 C1.65 0.33 3.3 0.66 5 1 C4.566875 1.7734375 4.566875 1.7734375 4.125 2.5625 C2.71219973 5.62356725 1.8751483 8.74944918 1 12 C0.34 12 -0.32 12 -1 12 C-1.69965443 10.73581754 -2.38434763 9.46334598 -3.0625 8.1875 C-3.44535156 7.47980469 -3.82820313 6.77210937 -4.22265625 6.04296875 C-5 4 -5 4 -4 1 C-3.01 1.33 -2.02 1.66 -1 2 C-0.67 1.34 -0.34 0.68 0 0 Z " fill="#110C09" transform="translate(57,16)"/>
<path d="M0 0 C0.33 1.32 0.66 2.64 1 4 C1.99 4 2.98 4 4 4 C4 4.66 4 5.32 4 6 C4.66 6 5.32 6 6 6 C6 5.34 6 4.68 6 4 C7.65 4.33 9.3 4.66 11 5 C10.375 6.875 10.375 6.875 9 9 C5.875 10.25 5.875 10.25 3 11 C2.67 10.34 2.34 9.68 2 9 C0.68 9 -0.64 9 -2 9 C-1.125 2.25 -1.125 2.25 0 0 Z " fill="#5E6566" transform="translate(21,54)"/>
<path d="M0 0 C3.43595166 1.52708963 6.11912454 3.59927045 9 6 C8.67 7.32 8.34 8.64 8 10 C3.59885603 9.49701212 1.28804981 7.91227269 -2 5 C-1.34 3.35 -0.68 1.7 0 0 Z " fill="#D3862B" transform="translate(37,63)"/>
<path d="M0 0 C2.66666667 1.33333333 5.33333333 2.66666667 8 4 C8 5.65 8 7.3 8 9 C4.37 9 0.74 9 -3 9 C-2.20197185 5.8078874 -1.25768711 3.01844907 0 0 Z " fill="#0B1A28" transform="translate(33,70)"/>
<path d="M0 0 C0.66 0.66 1.32 1.32 2 2 C2.33 1.34 2.66 0.68 3 0 C3.66 0 4.32 0 5 0 C8 5.625 8 5.625 8 9 C6.68 9 5.36 9 4 9 C3.67 7.68 3.34 6.36 3 5 C2.34 5 1.68 5 1 5 C1 6.32 1 7.64 1 9 C0.01 8.67 -0.98 8.34 -2 8 C-2.875 6.1875 -2.875 6.1875 -3 4 C-1.5625 1.75 -1.5625 1.75 0 0 Z " fill="#D68025" transform="translate(47,23)"/>
<path d="M0 0 C0.99 0 1.98 0 3 0 C3.33 1.98 3.66 3.96 4 6 C3.34 6 2.68 6 2 6 C2 6.66 2 7.32 2 8 C0.68 8.33 -0.64 8.66 -2 9 C-2.33 8.34 -2.66 7.68 -3 7 C-3.99 6.67 -4.98 6.34 -6 6 C-6.33 6.66 -6.66 7.32 -7 8 C-7.66 6.02 -8.32 4.04 -9 2 C-4.545 2.99 -4.545 2.99 0 4 C0 2.68 0 1.36 0 0 Z " fill="#9D7648" transform="translate(56,32)"/>
<path d="M0 0 C1.1875 1.5625 1.1875 1.5625 2 4 C0.625 7.75 0.625 7.75 -1 11 C1.31 11 3.62 11 6 11 C6 11.33 6 11.66 6 12 C2.04 12 -1.92 12 -6 12 C-2.25 3.375 -2.25 3.375 0 0 Z " fill="#385667" transform="translate(14,69)"/>
<path d="M0 0 C0.66 0 1.32 0 2 0 C2 0.66 2 1.32 2 2 C2.99 2 3.98 2 5 2 C5 2.66 5 3.32 5 4 C5.66 4 6.32 4 7 4 C7 5.65 7 7.3 7 9 C4.69 9 2.38 9 0 9 C0 6.03 0 3.06 0 0 Z " fill="#135E7E" transform="translate(72,70)"/>
<path d="M0 0 C2.25245881 2.68841859 3.88213958 4.64641875 5 8 C8.63 8.33 12.26 8.66 16 9 C16 9.33 16 9.66 16 10 C14.53626953 9.96519531 14.53626953 9.96519531 13.04296875 9.9296875 C11.77066406 9.91164063 10.49835938 9.89359375 9.1875 9.875 C7.92292969 9.85179688 6.65835938 9.82859375 5.35546875 9.8046875 C1.8661976 9.72418082 1.8661976 9.72418082 -1 12 C-2.24546405 9.50907189 -1.7767578 8.58919267 -1 6 C-0.34 6 0.32 6 1 6 C0.67 4.02 0.34 2.04 0 0 Z " fill="#04162A" transform="translate(66,72)"/>
<path d="M0 0 C0.66 0.33 1.32 0.66 2 1 C2 2.32 2 3.64 2 5 C2.66 5 3.32 5 4 5 C7 10.75 7 10.75 7 13 C6.01 13 5.02 13 4 13 C4 12.34 4 11.68 4 11 C3.01 11 2.02 11 1 11 C1 10.34 1 9.68 1 9 C0.01 9 -0.98 9 -2 9 C-1.67 7.68 -1.34 6.36 -1 5 C-0.34 5 0.32 5 1 5 C0.67 3.35 0.34 1.7 0 0 Z " fill="#275268" transform="translate(73,61)"/>
<path d="M0 0 C0.66 0 1.32 0 2 0 C4.29612756 9.41002278 4.29612756 9.41002278 4 14 C1.34730103 11.52414762 -0.68010103 9.40973899 -2 6 C-2 5.01 -2 4.02 -2 3 C-1.34 3 -0.68 3 0 3 C0 2.01 0 1.02 0 0 Z " fill="#110705" transform="translate(61,28)"/>
<path d="M0 0 C1.9375 0.6875 1.9375 0.6875 4 2 C5.09809194 5.29427581 5.11196276 6.66411172 4 10 C4 10.99 4 11.98 4 13 C3.34 13 2.68 13 2 13 C-1.125 6.375 -1.125 6.375 0 3 C0 2.01 0 1.02 0 0 Z " fill="#04080E" transform="translate(67,40)"/>
<path d="M0 0 C4.22679462 3.47200986 6.47776043 7.81568696 8 13 C8.032901 15.57567862 7.64387754 17.4781463 7 20 C6.01 20.33 5.02 20.66 4 21 C4.4021875 19.3603125 4.4021875 19.3603125 4.8125 17.6875 C5.5158187 12.51440591 3.44209108 8.84583486 1.12890625 4.3203125 C0 2 0 2 0 0 Z " fill="#B37E44" transform="translate(49,16)"/>
<path d="M0 0 C1.65 0 3.3 0 5 0 C5.33 1.32 5.66 2.64 6 4 C4.68 4 3.36 4 2 4 C1.01 5.485 1.01 5.485 0 7 C-0.66 7 -1.32 7 -2 7 C-2.99 10.465 -2.99 10.465 -4 14 C-5.06528748 11.26980214 -5.07998186 10.20701188 -4.00390625 7.421875 C-3.52824219 6.54015625 -3.05257812 5.6584375 -2.5625 4.75 C-2.08941406 3.85796875 -1.61632813 2.9659375 -1.12890625 2.046875 C-0.75636719 1.37140625 -0.38382813 0.6959375 0 0 Z " fill="#D88534" transform="translate(43,12)"/>
<path d="M0 0 C0.66 0.99 1.32 1.98 2 3 C1.34 3 0.68 3 0 3 C0.33 4.98 0.66 6.96 1 9 C1.66 9 2.32 9 3 9 C3 8.34 3 7.68 3 7 C3.99 7 4.98 7 6 7 C6.33 6.01 6.66 5.02 7 4 C7.33 4.99 7.66 5.98 8 7 C4.8745041 9.64465038 1.91211733 10.84414715 -2 12 C-2.28571429 3.42857143 -2.28571429 3.42857143 0 0 Z " fill="#B27839" transform="translate(34,29)"/>
<path d="M0 0 C2.0625 0.4375 2.0625 0.4375 4 1 C4 2.65 4 4.3 4 6 C2.68 5.67 1.36 5.34 0 5 C0 5.66 0 6.32 0 7 C-0.66 7 -1.32 7 -2 7 C-2.33 7.99 -2.66 8.98 -3 10 C-3.33 9.34 -3.66 8.68 -4 8 C-1.48571429 1.48571429 -1.48571429 1.48571429 0 0 Z " fill="#FD8409" transform="translate(45,15)"/>
<path d="M0 0 C0.66 0.33 1.32 0.66 2 1 C-0.6363348 4.6127551 -2.91131099 7.10524168 -7 9 C-9.8125 9.1875 -9.8125 9.1875 -12 9 C-11.67 8.01 -11.34 7.02 -11 6 C-9.67947428 5.61907912 -8.34293502 5.29225744 -7 5 C-5.05591393 3.83404344 -5.05591393 3.83404344 -3.25 2.4375 C-2.63640625 1.98246094 -2.0228125 1.52742188 -1.390625 1.05859375 C-0.93171875 0.70925781 -0.4728125 0.35992187 0 0 Z " fill="#350C0A" transform="translate(55,68)"/>
<path d="M0 0 C1.32 0.33 2.64 0.66 4 1 C4 1.66 4 2.32 4 3 C5.32 3 6.64 3 8 3 C8.33 3.99 8.66 4.98 9 6 C8.01 6 7.02 6 6 6 C5.01 7.485 5.01 7.485 4 9 C0 4.5 0 4.5 0 0 Z " fill="#8B785F" transform="translate(50,38)"/>
<path d="M0 0 C0.66 0.99 1.32 1.98 2 3 C2.99 2.67 3.98 2.34 5 2 C7 5 7 5 6.625 7.1875 C6.41875 7.785625 6.2125 8.38375 6 9 C6 8.01 6 7.02 6 6 C3.69 6.66 1.38 7.32 -1 8 C-1 7.01 -1 6.02 -1 5 C-1.66 4.67 -2.32 4.34 -3 4 C-2.01 4 -1.02 4 0 4 C0 2.68 0 1.36 0 0 Z " fill="#596A6D" transform="translate(63,50)"/>
<path d="M0 0 C0.33 0.66 0.66 1.32 1 2 C1.66 2 2.32 2 3 2 C2 5 2 5 -1 7 C-3.1875 6.625 -3.1875 6.625 -5 6 C-4.34 5.67 -3.68 5.34 -3 5 C-3.33 4.01 -3.66 3.02 -4 2 C-2.68 1.34 -1.36 0.68 0 0 Z " fill="#E26624" transform="translate(48,68)"/>
<path d="M0 0 C0.99 0.33 1.98 0.66 3 1 C3.625 3.8125 3.625 3.8125 4 7 C3.01 8.485 3.01 8.485 2 10 C1.34 10 0.68 10 0 10 C-1.125 3.375 -1.125 3.375 0 0 Z " fill="#030612" transform="translate(77,58)"/>
<path d="M0 0 C0.33 1.65 0.66 3.3 1 5 C-0.98 5.66 -2.96 6.32 -5 7 C-5 5.02 -5 3.04 -5 1 C-3 0 -3 0 0 0 Z " fill="#020717" transform="translate(21,48)"/>
<path d="M0 0 C0.78375 0.04125 1.5675 0.0825 2.375 0.125 C1.715 1.445 1.055 2.765 0.375 4.125 C-0.285 4.125 -0.945 4.125 -1.625 4.125 C-1.625 4.785 -1.625 5.445 -1.625 6.125 C-3.275 6.125 -4.925 6.125 -6.625 6.125 C-3.85227273 0.18344156 -3.85227273 0.18344156 0 0 Z " fill="#7D7262" transform="translate(34.625,47.875)"/>
<path d="M0 0 C0.66 0.33 1.32 0.66 2 1 C2 1.99 2 2.98 2 4 C2.99 3.67 3.98 3.34 5 3 C4.67 4.32 4.34 5.64 4 7 C2.02 7 0.04 7 -2 7 C-2.125 4.625 -2.125 4.625 -2 2 C-1.34 1.34 -0.68 0.68 0 0 Z " fill="#2B5972" transform="translate(15,73)"/>
<path d="M0 0 C1.32 0 2.64 0 4 0 C5.4606285 2.64738916 6 3.89448334 6 7 C4.68 7 3.36 7 2 7 C0 4 0 4 0 0 Z " fill="#475F6E" transform="translate(67,56)"/>
<path d="M0 0 C3 1 3 1 4.1875 3.0625 C4.455625 3.701875 4.72375 4.34125 5 5 C5.66 5 6.32 5 7 5 C7.33 5.99 7.66 6.98 8 8 C5.97954558 7.39816251 3.97888961 6.72693904 2 6 C1.67 5.34 1.34 4.68 1 4 C0.34 4.66 -0.32 5.32 -1 6 C-1.33 5.34 -1.66 4.68 -2 4 C-1.0625 1.875 -1.0625 1.875 0 0 Z " fill="#0F1422" transform="translate(33,56)"/>
<path d="M0 0 C1.00016187 2.00032373 1.49396008 3.83125748 2 6 C2.66 5.67 3.32 5.34 4 5 C4.33 6.32 4.66 7.64 5 9 C4.34 9 3.68 9 3 9 C2.67 9.66 2.34 10.32 2 11 C2 10.34 2 9.68 2 9 C1.34 9 0.68 9 0 9 C0 8.34 0 7.68 0 7 C-0.99 6.67 -1.98 6.34 -3 6 C-2.01 4.02 -1.02 2.04 0 0 Z " fill="#1A1A18" transform="translate(39,44)"/>
<path d="M0 0 C2.31 0 4.62 0 7 0 C6.67 0.99 6.34 1.98 6 3 C6.33 3.99 6.66 4.98 7 6 C3.75728494 5.4409112 2.06942576 4.5867822 0 2 C0 1.34 0 0.68 0 0 Z " fill="#3E1E09" transform="translate(40,62)"/>
<path d="M0 0 C0 0.66 0 1.32 0 2 C-0.99 2 -1.98 2 -3 2 C-3.33 3.32 -3.66 4.64 -4 6 C-5.65 6.33 -7.3 6.66 -9 7 C-8.67 5.35 -8.34 3.7 -8 2 C-2.25 0 -2.25 0 0 0 Z " fill="#05070B" transform="translate(42,11)"/>
<path d="M0 0 C2.475 0.495 2.475 0.495 5 1 C5 2.32 5 3.64 5 5 C3.35 5 1.7 5 0 5 C0 3.35 0 1.7 0 0 Z " fill="#011F38" transform="translate(33,72)"/>
<path d="M0 0 C1.5027237 0.97498145 3.00211963 1.95509389 4.5 2.9375 C5.3353125 3.48277344 6.170625 4.02804688 7.03125 4.58984375 C7.6809375 5.05519531 8.330625 5.52054687 9 6 C9 6.33 9 6.66 9 7 C6.01644824 7.24862931 4.35134151 7.18991433 1.6875 5.75 C0 4 0 4 0 0 Z " fill="#221305" transform="translate(34,67)"/>
<path d="M0 0 C0.66 0 1.32 0 2 0 C2 0.66 2 1.32 2 2 C2.99 2 3.98 2 5 2 C5 1.34 5 0.68 5 0 C5.66 0 6.32 0 7 0 C7 0.66 7 1.32 7 2 C7.66 2 8.32 2 9 2 C9 2.66 9 3.32 9 4 C5.7 4 2.4 4 -1 4 C-0.67 2.68 -0.34 1.36 0 0 Z " fill="#8D7149" transform="translate(29,44)"/>
<path d="M0 0 C2.31 0 4.62 0 7 0 C7.66 1.98 8.32 3.96 9 6 C8.34 6.66 7.68 7.32 7 8 C4 3.25 4 3.25 4 1 C2.68 0.67 1.36 0.34 0 0 Z " fill="#301C07" transform="translate(44,11)"/>
<path d="M0 0 C0.66 0 1.32 0 2 0 C2.33 0.66 2.66 1.32 3 2 C3.66 2 4.32 2 5 2 C4 5 4 5 3 7 C2.01 6.67 1.02 6.34 0 6 C0 5.01 0 4.02 0 3 C-0.66 3 -1.32 3 -2 3 C-1 1 -1 1 0 0 Z " fill="#4C5E64" transform="translate(60,55)"/>
<path d="M0 0 C2.64 0 5.28 0 8 0 C8.33 1.98 8.66 3.96 9 6 C8.01 6.33 7.02 6.66 6 7 C6 5.35 6 3.7 6 2 C4.02 2 2.04 2 0 2 C0 1.34 0 0.68 0 0 Z " fill="#BB6F44" transform="translate(42,53)"/>
<path d="M0 0 C0.66 0.33 1.32 0.66 2 1 C2.6328125 3.06640625 2.6328125 3.06640625 3.125 5.5625 C3.29257813 6.38878906 3.46015625 7.21507812 3.6328125 8.06640625 C3.75398438 8.70449219 3.87515625 9.34257813 4 10 C3.67 9.34 3.34 8.68 3 8 C1.35 8.33 -0.3 8.66 -2 9 C-1.67 7.88625 -1.34 6.7725 -1 5.625 C0.088643 2.30540283 0.088643 2.30540283 0 0 Z " fill="#6D6962" transform="translate(62,40)"/>
<path d="M0 0 C2.875 -0.125 2.875 -0.125 6 0 C6.66 0.66 7.32 1.32 8 2 C3.05 3.485 3.05 3.485 -2 5 C-1.34 3.35 -0.68 1.7 0 0 Z " fill="#030920" transform="translate(37,8)"/>
<path d="M0 0 C1.5 1.3125 1.5 1.3125 3 3 C3 3.99 3 4.98 3 6 C-0.96 6 -4.92 6 -9 6 C-9 5.67 -9 5.34 -9 5 C-6.03 5 -3.06 5 0 5 C0 3.35 0 1.7 0 0 Z " fill="#204661" transform="translate(80,75)"/>
<path d="M0 0 C-0.33 0.99 -0.66 1.98 -1 3 C-2.65 3 -4.3 3 -6 3 C-6.33 2.01 -6.66 1.02 -7 0 C-3.98968256 -0.93423645 -3.13349732 -1.04449911 0 0 Z " fill="#0F1635" transform="translate(51,77)"/>
<path d="M0 0 C3.96 0 7.92 0 12 0 C12 0.33 12 0.66 12 1 C10.02 1 8.04 1 6 1 C6 1.99 6 2.98 6 4 C5.01 4 4.02 4 3 4 C3 3.34 3 2.68 3 2 C2.01 1.34 1.02 0.68 0 0 Z " fill="#000611" transform="translate(8,82)"/>
<path d="M0 0 C1.32 0.66 2.64 1.32 4 2 C3.67 3.32 3.34 4.64 3 6 C0.5625 5.625 0.5625 5.625 -2 5 C-2.33 4.34 -2.66 3.68 -3 3 C-1.68 3 -0.36 3 1 3 C0.67 2.01 0.34 1.02 0 0 Z " fill="#E88935" transform="translate(42,67)"/>
<path d="M0 0 C0.66 0.33 1.32 0.66 2 1 C2.33333333 2.33333333 2.66666667 3.66666667 3 5 C3.66 5.33 4.32 5.66 5 6 C5 6.66 5 7.32 5 8 C3.02 7.34 1.04 6.68 -1 6 C-0.67 4.02 -0.34 2.04 0 0 Z " fill="#240903" transform="translate(39,55)"/>
<path d="M0 0 C0.66 0.99 1.32 1.98 2 3 C0.625 5 0.625 5 -1 7 C-1.66 7 -2.32 7 -3 7 C-2.25 2.25 -2.25 2.25 0 0 Z " fill="#94795C" transform="translate(39,39)"/>
<path d="M0 0 C0.66 1.32 1.32 2.64 2 4 C1.01 5.32 0.02 6.64 -1 8 C-2.32 6.68 -3.64 5.36 -5 4 C-4.01 4 -3.02 4 -2 4 C-2 3.34 -2 2.68 -2 2 C-1.34 2 -0.68 2 0 2 C0 1.34 0 0.68 0 0 Z " fill="#806E49" transform="translate(60,36)"/>
<path d="M0 0 C1.61949011 2.57213134 2.04408751 3.67669159 1.625 6.75 C1.41875 7.4925 1.2125 8.235 1 9 C0.34 8.67 -0.32 8.34 -1 8 C-1.75 5.625 -1.75 5.625 -2 3 C-1.34 2.01 -0.68 1.02 0 0 Z " fill="#1E0703" transform="translate(57,60)"/>
<path d="M0 0 C0.99 0.66 1.98 1.32 3 2 C2 5 2 5 1 6 C0.67 6.66 0.34 7.32 0 8 C-0.66 6.02 -1.32 4.04 -2 2 C-1.34 1.34 -0.68 0.68 0 0 Z " fill="#151921" transform="translate(66,40)"/>
<path d="M0 0 C3.12270126 2.51830747 3.94523098 3.7261549 4.75 7.75 C4.8325 8.8225 4.915 9.895 5 11 C2.03947516 7.63576723 1.07710178 4.30840713 0 0 Z " fill="#CF8C43" transform="translate(49,16)"/>
<path d="M0 0 C0.66 0.99 1.32 1.98 2 3 C1.125 5.6875 1.125 5.6875 0 8 C-1.50559539 6.03617993 -2.89131683 4.21736634 -4 2 C-3.01 2 -2.02 2 -1 2 C-0.67 1.34 -0.34 0.68 0 0 Z " fill="#E88010" transform="translate(49,18)"/>
<path d="M0 0 C2.625 -0.1875 2.625 -0.1875 5 0 C5 0.99 5 1.98 5 3 C2.69 3 0.38 3 -2 3 C-1.34 2.01 -0.68 1.02 0 0 Z " fill="#015C82" transform="translate(74,76)"/>
<path d="M0 0 C1.65 0 3.3 0 5 0 C4.67 1.98 4.34 3.96 4 6 C3.67 5.34 3.34 4.68 3 4 C2.34 4 1.68 4 1 4 C0.67 2.68 0.34 1.36 0 0 Z " fill="#294A62" transform="translate(64,68)"/>
<path d="M0 0 C0.66 0.99 1.32 1.98 2 3 C1.67 3.66 1.34 4.32 1 5 C-0.65 4.67 -2.3 4.34 -4 4 C-4 3.34 -4 2.68 -4 2 C-2.68 1.34 -1.36 0.68 0 0 Z " fill="#F76E06" transform="translate(47,55)"/>
<path d="M0 0 C0.99 0 1.98 0 3 0 C3.33 1.98 3.66 3.96 4 6 C2.68 5.67 1.36 5.34 0 5 C0 3.35 0 1.7 0 0 Z " fill="#A07E55" transform="translate(56,32)"/>
<path d="M0 0 C0.99 0 1.98 0 3 0 C3 1.32 3 2.64 3 4 C1.35 4 -0.3 4 -2 4 C-1.34 2.68 -0.68 1.36 0 0 Z " fill="#01274B" transform="translate(56,72)"/>
</svg>
